 http://www.torrentday.com - Your Key To The Scene.

 
http://www.torrentday.com :  Clean RAR Scene Releases!


Enjoy =)

...................................NFO:....................................

.      *********** ****    ****      ***      ******** *********** ****    *** **********
           *+*     +*+*+* *+*+*+   *+* *+*   *+*    *+*    *+*     *+*+*   *+* *+*        
           +*+     +*+ +*+*+ +*+  +*+   +*+  +*+           +*+     *+*+*+  +*+ +*+        
           +$+     +$+  +*+  +$+ +$++*++$++* *$*           +$+     +$+ +*+ +$+ +$++*++$  
           +$+     +$+       +$+ +$+     +$+ +$+   +$+$    +$+     +$+  +$+$+$ +$+        
           $+$     $+$       $+$ $+$     $+$ $+$    $+$    $+$     $+$   $+$+$ $+$        
       $$$$$$$$$$$ $$$       $$$ $$$     $$$  $$$$$$$$ $$$$$$$$$$$ $$$    $$$$ $$$$$$$$$$     
                                                



                           Another Fine Release Brought to you from - IMAGiNE                   
                                              http://imaginegroup.me/  
    
********************************************************************************************************************                                
                              Edge of Darkness R5 LiNE XViD V2 - IMAGiNE
********************************************************************************************************************

Ripper ...........: IMAGiNE                                        IMDB Rating.......:7.2/10                             
Video Codec.......: XVID                                         Release Date......:17/02/10
Audio Codec.......:MP3                                           Theatre Date......:29/01/10
Audio Bitrate.....:191                                              Runtime.......:1h 51mn
Subtitles.........:NIL                                                 Language..........:ENGLISH
Resolution...... 720 x 304                                      IMDb URL..........:http://www.imdb.com/title/tt1226273/


[color=yellow]DETAILS:[/color]

Video
ID                               : 0
Format                           : MPEG-4 Visual
Format profile                   : Advanced Simple@L5
Format settings, BVOP            : Yes
Format settings, QPel            : No
Format settings, GMC             : No warppoints
Format settings, Matrix          : Default (H.263)
Muxing mode                      : Packed bitstream
Codec ID                         : XVID
Codec ID/Hint                    : XviD
Duration                         : 1h 51mn
Bit rate                         : 1 631 Kbps
Width                            : 720 pixels
Height                           : 304 pixels
Display aspect ratio             : 2.35:1
Frame rate                       : 25.000 fps
Resolution                       : 8 bits
Colorimetry                      : 4:2:0
Scan type                        : Progressive
Bits/(Pixel*Frame)               : 0.298
Stream size                      : 1.27 GiB (89%)
Writing library                  : XviD 1.2.1 (UTC 2008-12-04)

Audio
ID                               : 1
Format                           : MPEG Audio
Format version                   : Version 1
Format profile                   : Layer 3
Codec ID                         : 55
Codec ID/Hint                    : MP3
Duration                         : 1h 50mn
Bit rate mode                    : Variable
Bit rate                         : 191 Kbps
Channel(s)                       : 2 channels
Sampling rate                    : 48.0 KHz
Stream size                      : 151 MiB (10%)
Alignment                        : Aligned on interleaves
Interleave, duration             : 24 ms (0.61 video frame)
Interleave, preload duration     : 467 ms



[color=yellow]NOTES:[/color]

IMAGiNE bringing you another release.....
Well heres our V2,video is the same as before only thing different with this release is it has the audio
from ghostmans release muxed to it.
Many thanks for the audio......
Oh and yes the audiois the best out so far so enjoy :)


Enjoy this top film.

[color=yellow]SCREENS:[/color]

[IMG]http://imagine.takagari.com/EDGE%20OF%20DARKNESS%20R5/vlcsnap-27044.png[/IMG]
[IMG]http://imagine.takagari.com/EDGE%20OF%20DARKNESS%20R5/vlcsnap-27247.png[/IMG]
[IMG]http://imagine.takagari.com/EDGE%20OF%20DARKNESS%20R5/vlcsnap-27933.png[/IMG]
[IMG]http://imagine.takagari.com/EDGE%20OF%20DARKNESS%20R5/vlcsnap-28300.png[/IMG]
[IMG]http://imagine.takagari.com/EDGE%20OF%20DARKNESS%20R5/vlcsnap-28399.png[/IMG]
[IMG]http://imagine.takagari.com/EDGE%20OF%20DARKNESS%20R5/vlcsnap-28688.png[/IMG]


[color=yellow]GREETS:[/color]

FLAWL3SS,ViSiON,DEViSE,FUSiON,STG,SecretMyth,BirdFlu,ELEKTRI4KA
And to all the other p2p grps past and present 

Special thanks to Python-Lair for the server :)
And special thanks to supreme-speeds.com for the ripbox :)

[COLOR=RED]Looking for these,syncers,cammer,silver supplier.....Have anything to offer????......
Contact us imaginegroup@hushmail.com[/COLOR]